<?xml version="1.0" encoding="utf-8"?>
<!-- Generator: Adobe Illustrator 23.0.3, SVG Export Plug-In . SVG Version: 6.00 Build 0)  -->
<svg version="1.1" id="Layer_1" xmlns="http://www.w3.org/2000/svg" xmlns:xlink="http://www.w3.org/1999/xlink" x="0px" y="0px"
	 viewBox="0 0 589 602.9" style="enable-background:new 0 0 589 602.9;" xml:space="preserve">
<style type="text/css">
	.st0{fill:#EDEDED;}
	.st1{fill:#B0B396;}
	.st2{fill:#9C4A40;}
	.st3{fill:#E5B641;}
	.st4{fill:#FFFFFF;}
	.st5{fill:#E68C43;}
	.st6{fill:#674E6B;}
	.st7{fill:#534B4F;}
	.st8{fill:#428F8A;}
</style>
<g>
	<g id="iRQwla_6_">
		<g>
			<path class="st4" d="M398.9,85.5c2.4,1.1,5.5,2.7,7.9,3.7c16.3,7.2,19.7,23,13.5,33.5c-5.5,9.2-12.6,15-28.5,11.2
				c-1.5-0.3-8.9-4.3-10.5-4.7c-126.3-66.1-264.3,31.4-271.6,163.1c-5.6,100.4,78.9,186.6,180.7,191.8c37.8,2.3,58.4-4.2,65.9-5.8
				c15.1-3.1,25.6,10.3,27.1,19.4c1.3,7.7-1,13.5-4.6,18.3c-5.1,6-8.5,7.5-12.2,8.5c-76.8,22.1-175.6,10.1-245-68
				c-68.8-77.4-78.7-196.4-23.7-283.5c37.5-59.4,98.2-96.4,157.3-105.4C305.8,60,343.6,60,398.9,85.5z"/>
		</g>
	</g>
	<path class="st4" d="M481.3,154.1c2.3,12.6-6.1,24.8-18.7,27.1c-12.6,2.3-24.8-6.1-27.1-18.7c-2.3-12.6,6.1-24.8,18.7-27.1
		C466.9,133,479,141.4,481.3,154.1z"/>
	<g id="iRQwla_5_">
		<g>
			<path class="st4" d="M430.1,468.7c-11.4-11.2-5-28.9-2-32.1c8.7-9.1,16.4-17.3,31.6-36.2c19.6-25.7,8.7-47.7-4.7-60.7
				c-17.5-16.8-44.8-15.6-66.1,1.2c-4.2,3.3-9.3,10.7-13.9,15.3c-28.7,29.1-87.7,53.3-136.4,10.3c-21.6-19.1-32.5-43.1-29.5-79.7
				c3-35.8,36-71.4,72.5-77.2c4.4-0.7,13-1.8,16.8-1.8c12.3,0,23.7,9.5,23.3,23.8c-0.4,13.3-8,22.3-23.5,23.5c-0.6,0-2,0.2-2.6,0.3
				c-18,1.3-34.4,13.6-40,34.8c-2,7.4-1.3,31,16.1,44.4c24.8,19.2,55.8,5,73.2-15.1c38.5-44.6,99.3-51,136.8-19.1
				c27.6,23.5,52.1,71.7,18.5,121.9c-17.5,26.6-28.4,36.7-35.2,43.7C456.5,475.3,440.5,478.9,430.1,468.7z"/>
		</g>
	</g>
</g>
</svg>
